<?xml version="1.0" encoding="utf-8"?>
<!-- Generator: Adobe Illustrator 27.5.0, SVG Export Plug-In . SVG Version: 6.00 Build 0)  -->
<svg version="1.1" id="Layer_1" xmlns="http://www.w3.org/2000/svg" xmlns:xlink="http://www.w3.org/1999/xlink" x="0px" y="0px"
	 viewBox="0 0 293.001 234.359" style="enable-background:new 0 0 293.001 234.359;" xml:space="preserve">
<g>
	<g>
		<g>
			<path style="fill:#D9D9DB;" d="M284.358,102.245c2.46-3.809,3.834-8.286,3.76-12.83c-0.056-3.402-1.044-6.787-2.715-9.762
				c-0.883-4.471-2.764-8.845-4.996-12.482c-5.819-9.482-14.483-16.894-24.291-22.029c-23.604-12.358-51.266-10.494-76.426-4.536
				c-10.926,2.588-21.846,5.581-32.099,10.132c-5.925,0.755-11.832,1.669-17.718,2.668c-19.366,3.289-39.156,7.955-55.877,18.722
				c-2.443,1.573-4.819,3.284-7.11,5.108c-0.246,0.071-0.493,0.135-0.738,0.207c-8.43,2.476-16.624,5.828-24.208,10.284
				c-6.749,3.965-13.034,8.82-18.399,14.531c-0.536,0.571-1.07,1.157-1.602,1.752c-1.289,1.209-2.552,2.455-3.755,3.781
				c-7.123,7.851-12.97,18.872-8.843,29.591c0.535,1.389,1.268,2.663,2.132,3.844c-0.3,0.591-0.614,1.176-0.876,1.787
				c-1.204,2.815-1.989,5.777-2.348,8.8c-0.335,1.795-0.441,3.653-0.295,5.563c-0.03,0.668-0.053,1.337-0.062,2.008
				c-0.063,4.564,0.757,8.719,3.432,12.487c0.009,0.013,0.021,0.027,0.03,0.04c-0.141,0.609-0.261,1.227-0.334,1.868
				c-0.45,3.949,0.552,7.972,2.487,11.414c1.849,3.288,4.747,6.519,8.176,8.556c0.336,1.432,0.725,2.671,0.895,3.159
				c1.414,4.064,3.861,7.809,7.015,10.738c5.803,5.389,13.668,7.814,21.433,6.945c0.285,0.27,0.573,0.538,0.876,0.798
				c3.332,2.857,7.22,4.995,11.439,6.213c4.516,1.304,9.338,1.542,13.967,0.725c0.27-0.048,0.538-0.11,0.807-0.164
				c0.238,0.39,0.502,0.771,0.808,1.137c2.128,2.546,5.434,3.841,8.691,4.062c3.603,0.245,7.198-0.664,10.465-2.138
				c0.23-0.104,0.45-0.227,0.677-0.336c1.288,1.06,2.74,1.957,4.214,2.709c3.375,1.722,7.173,2.671,10.961,2.756
				c7.451,0.167,14.634-3.151,19.632-8.634c4.225,1.684,9.068,1.392,13.464-0.543c3.48-1.532,6.554-3.852,9.247-6.515
				c1.013-1.002,1.959-2.065,2.884-3.147c0.643,0.135,1.317,0.186,2.117,0.108c1.707-0.166,3.439-0.644,5.057-1.206
				c3.187-1.107,6.238-2.774,8.914-4.823c2.694-2.062,5.087-4.48,7.1-7.213c0.382-0.518,0.736-1.057,1.088-1.597
				c3.979,1.321,8.121,1.826,12.121-0.162c2.348-1.167,4.317-3.084,5.606-5.364c0.176-0.31,0.355-0.666,0.533-1.039
				c2.435,0.541,5.076,0.537,7.367,0.304c3.92-0.399,7.743-1.655,11.161-3.611c2.861-1.638,5.463-3.844,7.5-6.46
				c2.088,0.274,4.213,0.26,6.304,0.036c4.481-0.48,8.859-2.01,12.736-4.292c3.974-2.339,7.515-5.602,9.969-9.524
				c0.216-0.345,0.427-0.723,0.635-1.115c5.476,0.045,11.115-2.618,15.03-6.162c5.706-5.165,8.214-13.024,6.987-20.579
				c-0.146-0.899-0.354-1.79-0.601-2.671c1.328-1.288,2.524-2.733,3.54-4.276c2.256-3.428,3.712-7.432,3.995-11.536
				c0.378-5.492-1.263-10.681-4.338-14.953C282.879,104.351,283.689,103.281,284.358,102.245z"/>
			<path style="fill:#9BA0A8;" d="M114.476,230.844c-0.186,0-0.371-0.002-0.557-0.006c-3.875-0.086-7.738-1.058-11.171-2.809
				c-1.53-0.781-2.893-1.643-4.056-2.567l-0.008,0.004c-0.134,0.069-0.269,0.138-0.407,0.2c-3.714,1.677-7.316,2.409-10.696,2.181
				c-3.7-0.252-6.991-1.796-9.031-4.235c-0.233-0.279-0.452-0.576-0.666-0.904c-0.164,0.035-0.327,0.069-0.492,0.098
				c-4.724,0.834-9.629,0.578-14.187-0.736c-4.262-1.23-8.172-3.354-11.621-6.312c-0.251-0.215-0.493-0.436-0.73-0.66
				c-7.982,0.826-15.837-1.75-21.593-7.095c-3.227-2.997-5.697-6.777-7.143-10.934c-0.17-0.491-0.535-1.654-0.861-3.008
				c-3.214-1.958-6.185-5.092-8.174-8.629c-2.081-3.7-2.985-7.857-2.546-11.706c0.061-0.533,0.155-1.082,0.295-1.711
				c-2.418-3.487-3.498-7.497-3.427-12.636c0.009-0.675,0.033-1.35,0.063-2.023c-0.146-1.857-0.045-3.771,0.302-5.63
				c0.363-3.059,1.166-6.064,2.38-8.902c0.212-0.496,0.458-0.976,0.704-1.454l0.051-0.1c-0.866-1.221-1.527-2.438-2.018-3.713
				c-4.76-12.365,3.556-24.16,8.937-30.091c1.091-1.202,2.293-2.412,3.783-3.809c0.504-0.567,1.042-1.157,1.58-1.73
				c5.209-5.544,11.436-10.462,18.507-14.617c7.2-4.23,15.381-7.706,24.317-10.331l0.65-0.182c2.305-1.83,4.685-3.538,7.073-5.075
				c17.234-11.097,38.009-15.727,56.058-18.793c6.494-1.103,12.274-1.974,17.667-2.662c10.789-4.78,22.289-7.804,32.119-10.132
				c31.514-7.464,56.624-5.966,76.762,4.578c10.462,5.477,18.927,13.156,24.48,22.205c2.422,3.946,4.212,8.406,5.043,12.566
				c1.737,3.118,2.685,6.548,2.74,9.924c0.074,4.569-1.252,9.099-3.837,13.101l0,0c-0.622,0.962-1.368,1.958-2.173,2.899
				c3.119,4.474,4.572,9.636,4.207,14.956c-0.28,4.076-1.689,8.146-4.073,11.77c-0.985,1.495-2.129,2.892-3.403,4.156
				c0.234,0.867,0.41,1.67,0.536,2.447c1.27,7.827-1.466,15.879-7.14,21.016c-4.315,3.906-9.924,6.242-15.065,6.288
				c-0.169,0.31-0.341,0.609-0.514,0.887c-2.41,3.854-5.915,7.202-10.134,9.685c-4.036,2.375-8.507,3.881-12.93,4.355
				c-2.139,0.229-4.204,0.228-6.145-0.003c-2.005,2.516-4.583,4.713-7.47,6.366c-3.498,2.003-7.425,3.272-11.353,3.673
				c-1.824,0.185-4.511,0.289-7.144-0.234c-0.129,0.258-0.257,0.503-0.382,0.726c-1.355,2.395-3.419,4.37-5.812,5.56
				c-3.482,1.73-7.343,1.829-12.133,0.304c-0.291,0.443-0.586,0.882-0.901,1.308c-2.019,2.741-4.439,5.201-7.195,7.311
				c-2.741,2.098-5.87,3.791-9.05,4.896c-1.96,0.681-3.651,1.083-5.168,1.231c-0.701,0.068-1.335,0.049-1.979-0.062
				c-0.745,0.865-1.697,1.942-2.729,2.963c-2.995,2.963-6.155,5.189-9.392,6.614c-4.55,2.003-9.336,2.239-13.527,0.671
				C128.599,227.749,121.639,230.843,114.476,230.844z M98.824,224.316l0.238,0.196c1.161,0.955,2.55,1.847,4.126,2.652
				c3.304,1.685,7.022,2.62,10.752,2.703c7.209,0.169,14.206-2.928,19.264-8.476l0.225-0.248l0.313,0.124
				c4.016,1.601,8.666,1.411,13.089-0.537c3.128-1.378,6.189-3.537,9.1-6.416c1.094-1.082,2.101-2.235,2.857-3.118l0.187-0.218
				l0.282,0.059c0.644,0.136,1.27,0.166,1.97,0.1c1.44-0.14,3.057-0.526,4.944-1.181c3.083-1.071,6.119-2.714,8.779-4.75
				c2.683-2.054,5.04-4.448,7.004-7.116c0.376-0.511,0.726-1.042,1.072-1.574l0.205-0.313l0.354,0.118
				c4.696,1.559,8.429,1.515,11.752-0.136c2.222-1.105,4.14-2.94,5.4-5.169c0.17-0.301,0.345-0.647,0.518-1.009l0.166-0.348
				l0.377,0.083c2.625,0.584,5.371,0.483,7.212,0.294c3.795-0.386,7.588-1.614,10.97-3.549c2.861-1.637,5.405-3.829,7.357-6.337
				l0.171-0.219l0.276,0.037c1.943,0.255,4.027,0.266,6.188,0.035c4.287-0.459,8.624-1.922,12.542-4.227
				c4.087-2.404,7.477-5.641,9.804-9.363c0.208-0.335,0.415-0.703,0.617-1.085l0.138-0.26l0.295,0.002
				c4.864,0.042,10.543-2.273,14.701-6.037c5.434-4.918,8.053-12.635,6.835-20.141c-0.134-0.824-0.327-1.68-0.59-2.618l-0.078-0.278
				l0.208-0.201c1.305-1.267,2.474-2.678,3.473-4.194c2.293-3.485,3.647-7.394,3.916-11.303c0.359-5.215-1.11-10.277-4.249-14.637
				l-0.225-0.313l0.255-0.29c0.87-0.989,1.678-2.053,2.339-3.075l0,0c2.48-3.84,3.753-8.182,3.682-12.558
				c-0.053-3.24-0.971-6.536-2.653-9.533l-0.053-0.144c-0.804-4.072-2.557-8.448-4.933-12.322
				c-5.462-8.9-13.797-16.457-24.103-21.853c-19.924-10.431-44.811-11.901-76.089-4.493c-9.806,2.322-21.278,5.338-32.014,10.104
				l-0.135,0.038c-5.401,0.688-11.19,1.56-17.698,2.666c-17.953,3.049-38.609,7.649-55.696,18.652
				c-2.388,1.537-4.767,3.246-7.071,5.079l-0.168,0.087l-0.735,0.206c-8.859,2.603-16.968,6.047-24.099,10.237
				c-6.992,4.108-13.146,8.968-18.292,14.444c-0.533,0.568-1.064,1.151-1.594,1.743c-1.5,1.409-2.685,2.602-3.758,3.784
				c-5.231,5.766-13.324,17.211-8.749,29.091c0.492,1.279,1.169,2.5,2.071,3.732l0.176,0.241l-0.323,0.632
				c-0.235,0.458-0.472,0.917-0.675,1.393c-1.177,2.752-1.956,5.668-2.313,8.666c-0.337,1.807-0.433,3.637-0.293,5.469
				c-0.029,0.721-0.052,1.386-0.061,2.052c-0.07,5.012,0.993,8.889,3.343,12.2l0.127,0.178l-0.019,0.252
				c-0.159,0.683-0.261,1.258-0.325,1.814c-0.415,3.648,0.447,7.598,2.428,11.121c1.945,3.458,4.861,6.511,8.002,8.377l0.177,0.105
				l0.047,0.201c0.328,1.4,0.708,2.613,0.88,3.11c1.394,4.007,3.776,7.652,6.888,10.541c5.602,5.203,13.277,7.693,21.049,6.818
				l0.224-0.025l0.164,0.156c0.278,0.265,0.56,0.527,0.857,0.782c3.342,2.866,7.13,4.924,11.258,6.116
				c4.418,1.274,9.172,1.521,13.749,0.713c0.17-0.03,0.34-0.066,0.509-0.102l0.619-0.127l0.177,0.29
				c0.247,0.405,0.497,0.757,0.766,1.079c1.87,2.238,4.915,3.656,8.352,3.889c3.221,0.219,6.666-0.486,10.232-2.096
				c0.123-0.056,0.243-0.117,0.364-0.18c0.101-0.052,0.202-0.103,0.304-0.152L98.824,224.316z"/>
		</g>
		<g>
			<path style="fill:#E4E5E6;" d="M288.118,89.415c-0.021-1.275-0.173-2.547-0.442-3.796c-0.734,3.116-1.912,6.132-3.5,8.885
				c-3.167,5.493-8.096,10.114-14.233,11.946c2.136,2.162,4.235,4.465,5.409,7.296c2.147,5.178,0,11.465-4.635,14.523
				c-1.688,1.114-3.589,1.742-5.557,2.015c1.763,1.762,3.22,3.806,4.074,6.188c1.298,3.615,0.868,7.515-0.62,11
				c-1.285,3.01-3.433,5.283-6.146,7.083c-2.275,1.509-5.145,2.726-7.971,3.061c0.012,1.201-0.213,2.423-0.711,3.63
				c-1.272,3.082-3.742,5.538-6.408,7.459c-3.003,2.164-6.481,3.748-10.077,4.621c-3.353,0.814-7.008,1.058-10.343,0.021
				c-0.69-0.215-1.343-0.498-1.968-0.824c-3.676,4.781-9.27,8.485-15.082,10.058c-2.441,0.661-5.124,0.957-7.601,0.297
				c-1.048,1.472-2.293,2.82-3.569,4.048c-2.113,2.035-4.507,3.947-7.157,5.237c-0.962,0.468-1.993,0.891-3.071,0.967
				c-1.775,0.126-3.638-0.321-5.274-0.98c-1.231-0.496-2.449-1.171-3.539-2.005c-3.029,6.038-8.496,11.355-14.706,13.957
				c-2.721,1.14-5.828,1.78-8.734,0.986c-3.726,5.057-8.851,9.746-15.229,10.272c-3.606,0.298-6.807-1.145-8.837-4.165
				c-0.02-0.03-0.036-0.062-0.055-0.092c-0.017,0.028-0.032,0.057-0.05,0.084c-3.999,6.24-10.699,10.527-18.228,10.499
				c-4.234-0.016-8.638-1.344-11.897-3.981c-3.521,2.482-7.992,3.766-12.185,3.944c-4.042,0.172-8.374-0.808-11.408-3.448
				c-4.872,1.556-10.125,1.59-15.071-0.175c-4.449-1.588-8.941-4.577-10.998-8.856c-6.779,1.548-14.103,0.428-19.374-4.481
				c-3.996-3.722-6.164-9.112-6.394-14.555c-3.842-1.555-6.493-5.465-7.691-9.398c-0.663-2.178-1-4.603-0.502-6.851
				c0.238-1.076,0.751-2.128,1.557-2.836c-1.972-0.562-3.794-1.546-5.348-2.919c-3.601-3.181-5.509-7.963-6.351-12.596
				c-0.09-0.495-0.164-0.996-0.234-1.497c-0.086,1.095-0.099,2.208-0.012,3.342c-0.03,0.668-0.053,1.337-0.062,2.008
				c-0.063,4.564,0.757,8.719,3.432,12.487c0.009,0.013,0.021,0.027,0.03,0.04c-0.141,0.609-0.261,1.227-0.334,1.868
				c-0.45,3.949,0.552,7.972,2.487,11.414c1.849,3.288,4.747,6.519,8.176,8.556c0.336,1.432,0.725,2.671,0.895,3.159
				c1.414,4.064,3.861,7.809,7.015,10.738c5.803,5.389,13.668,7.814,21.433,6.945c0.285,0.27,0.573,0.538,0.876,0.798
				c3.332,2.857,7.22,4.995,11.439,6.213c4.516,1.304,9.338,1.542,13.967,0.725c0.27-0.048,0.538-0.11,0.807-0.164
				c0.238,0.39,0.502,0.771,0.808,1.137c2.128,2.546,5.434,3.841,8.691,4.062c3.603,0.245,7.198-0.664,10.465-2.138
				c0.23-0.104,0.45-0.227,0.677-0.336c1.288,1.06,2.74,1.957,4.214,2.709c3.375,1.722,7.173,2.671,10.961,2.756
				c7.451,0.167,14.634-3.151,19.632-8.634c4.225,1.684,9.068,1.392,13.464-0.543c3.48-1.532,6.554-3.852,9.247-6.515
				c1.013-1.002,1.959-2.065,2.884-3.147c0.643,0.135,1.317,0.186,2.117,0.108c1.707-0.166,3.439-0.644,5.057-1.206
				c3.187-1.107,6.238-2.774,8.914-4.823c2.694-2.062,5.087-4.48,7.1-7.213c0.382-0.518,0.736-1.057,1.088-1.597
				c3.979,1.321,8.121,1.826,12.121-0.162c2.348-1.167,4.317-3.084,5.606-5.364c0.176-0.31,0.355-0.666,0.533-1.039
				c2.435,0.541,5.076,0.537,7.367,0.304c3.92-0.399,7.743-1.655,11.161-3.611c2.861-1.638,5.463-3.844,7.5-6.46
				c2.088,0.274,4.213,0.26,6.304,0.036c4.481-0.48,8.859-2.01,12.736-4.292c3.974-2.339,7.515-5.602,9.969-9.524
				c0.216-0.345,0.427-0.723,0.635-1.115c5.476,0.045,11.115-2.618,15.03-6.162c5.706-5.165,8.214-13.024,6.987-20.579
				c-0.146-0.899-0.354-1.79-0.601-2.671c1.328-1.288,2.524-2.733,3.54-4.276c2.256-3.428,3.712-7.432,3.995-11.536
				c0.378-5.492-1.263-10.681-4.338-14.953c0.901-1.026,1.712-2.097,2.381-3.132C286.818,98.436,288.192,93.959,288.118,89.415z"/>
		</g>
		<path style="opacity:0.63;fill:#EBEBEC;" d="M191.934,160.239c-2.194,0.334-4.134,1.273-5.939,2.463
			c-0.025-0.576-0.057-1.151-0.128-1.728c-0.632-5.086-3.245-9.606-7.382-12.635c-3.857-2.825-8.628-4.341-13.404-4.356
			c-5.471-0.018-10.78,1.692-15.527,4.339c-4.607,2.569-8.836,6.013-12.091,10.177c-1.552,1.984-2.871,4.162-3.795,6.51
			c-0.14,0.355-0.251,0.719-0.371,1.08c-3.089,0.243-6.131,1.043-8.556,2.159c-1.8,0.828-3.463,1.88-4.983,3.097
			c-0.608-1.965-1.473-3.853-2.679-5.572c-3.195-4.552-8.171-7.602-13.494-9.022c-1.851-0.494-3.706-0.742-5.553-0.817
			c0.6-1.147,1.136-2.33,1.562-3.568c1.877-5.461,1.787-11.506-1.201-16.558c-2.773-4.688-7.329-8.05-12.074-10.554
			c-5.346-2.821-11.238-4.993-17.298-5.479c-9.104-0.731-18.426,2.061-25.722,7.543c-2.255-3.092-5.125-5.578-8.636-7.295
			c-2.047-1.001-4.237-1.707-6.485-2.084c-2.381-0.399-5.005-0.478-7.242,0.566c-4.113,1.919-5.278,6.684-5.285,10.849
			c-0.006,3.878,0.76,7.762,2.122,11.401c-0.372,0.455-0.736,0.919-1.081,1.403c-1.53,2.146-2.838,4.468-3.765,6.939
			c-1.789,4.769-2.107,10.081-0.465,14.942c1.631,4.824,5.468,9.405,10.905,9.529c2.792,0.064,5.527-0.79,8.061-1.897
			c2.51-1.097,4.941-2.41,7.274-3.842c0.997-0.612,1.97-1.259,2.93-1.925c0.079,2.439,0.829,4.891,2.055,6.972
			c2.749,4.668,7.803,7.239,13.071,7.871c2.533,0.304,5.048,0.156,7.512-0.297c-3.031,5.151-4.704,11.281-3.346,17.209
			c0.649,2.836,1.906,5.533,3.8,7.753c2.1,2.461,4.914,4.056,8.004,4.94c6.437,1.84,13.531,1.255,19.881-0.64
			c5.738-1.713,11.465-4.692,16.254-8.695c1.031,1.721,2.601,3.15,4.512,4.098c4.6,2.28,10.128,1.315,14.708-0.501
			c4.089-1.621,7.834-4.093,10.982-7.16c1.476-1.438,2.817-3.015,4.01-4.697c0.322,0.375,0.653,0.743,1.01,1.084
			c3.79,3.618,9.217,4.746,14.297,3.982c5.42-0.814,10.236-3.663,14.173-7.39c3.243-3.071,6.055-6.725,8.356-10.595
			c0.154,0.237,0.308,0.474,0.486,0.704c3.433,4.449,10.009,4.27,14.444,1.564c2.357-1.438,4.293-3.521,5.798-5.818
			c1.533-2.339,2.807-5.056,2.835-7.904C204.531,162.16,197.195,159.439,191.934,160.239z"/>
		<path style="fill:#EBEBEC;" d="M56.451,197.727c-0.515-1.715-1.174-3.387-1.962-4.996c-1.596-3.258-3.721-6.273-6.261-8.864
			c-2.814-2.87-6.424-5.83-10.41-6.782c-3.21-0.766-7.074,0.454-8.399,3.58c-2.291,2.884-2.073,6.953-1.214,10.339
			c1.849,7.29,5.644,15.104,12.667,18.615c3.163,1.581,6.908,2.197,10.333,1.144c3.385-1.04,6.078-3.756,6.207-7.416
			C57.479,201.437,56.996,199.543,56.451,197.727z"/>
		<path style="opacity:0.63;fill:#EBEBEC;" d="M252.457,129.944c-1.886-4.111-5.353-6.901-9.737-7.979
			c-5.31-1.305-10.997-0.548-16.016,1.689c-0.051-0.128-0.094-0.258-0.151-0.384c-0.985-2.186-2.857-3.715-5.099-4.496
			c-2.302-0.802-4.787-0.952-7.206-0.9c-2.63,0.057-5.239,0.471-7.769,1.185c-7.627,2.152-14.196,7.305-18.21,14.06
			c-2.857,2.924-5.048,6.601-5.077,10.765c-0.036,5.038,3.435,8.846,8.167,10.134c4.877,1.327,10.177-0.134,14.726-2.132
			c-0.727,4.262,0.072,8.802,2.534,12.395c1.282,1.871,2.978,3.51,5.023,4.524c2.259,1.12,4.831,1.304,7.3,0.972
			c4.966-0.668,9.826-2.939,14.053-5.55c4.229-2.613,8.153-5.864,11.464-9.575c3.169-3.552,5.801-7.661,6.996-12.31
			C254.506,138.256,254.225,133.797,252.457,129.944z"/>
		<path style="fill:#EBEBEC;" d="M276.338,101.319c-0.928-3.282-4.161-5.29-7.263-6.182c-4.86-1.398-10.27-0.652-14.85,1.644
			c-1.455,0.529-2.872,1.179-4.245,1.975c-3.286,1.904-6.523,4.542-8.388,7.908c-0.878,1.584-1.457,3.375-1.285,5.205
			c0.179,1.898,1.224,3.547,2.531,4.886c2.523,2.584,6.075,3.992,9.636,4.297c7.773,0.666,14.763-3.807,19.801-9.354
			C274.78,108.937,277.453,105.261,276.338,101.319z"/>
		<path style="fill:#EBEBEC;" d="M65.761,139.652c-2.494-5.217-8.809-7.123-14.149-5.684c-4.099,1.105-7.443,4.21-9.484,7.987
			c-0.448-0.927-1.061-1.77-1.923-2.438c-2.605-2.015-6.217-1.985-9.267-1.185c-3.438,0.902-6.699,3.005-9.127,5.791
			c-1.492,0.986-2.527,2.761-3.292,4.382c-1.589,3.368-3.094,7.078-2.551,10.877c0.477,3.333,2.543,6.072,5.827,7.026
			c3.127,0.908,6.48,0.208,9.308-1.28c2.898-1.525,5.269-3.92,7.129-6.588c1.031-1.478,1.962-3.082,2.737-4.754
			c0.353,4.118,2.353,8.172,5.782,10.362c5.754,3.676,12.466-1.541,15.755-6.118C66.126,152.993,68.608,145.607,65.761,139.652z"/>
		<path style="fill:#EBEBEC;" d="M99.57,174.864c-1.719-3.967-4.698-7.401-8.474-9.529c-1.512-0.852-3.155-1.45-4.842-1.775
			c0.173-0.267,0.367-0.522,0.527-0.796c1.53-2.634,2.369-5.994,0.525-8.699c-1.674-2.456-4.742-3.519-7.619-3.334
			c-3.715,0.238-7.339,2.271-10.21,4.532c-1.432,1.128-2.727,2.426-3.757,3.899c-1.81,1.696-3.309,3.739-4.315,6.001
			c-1.241,2.79-1.763,6.316,1.033,8.347c2.24,1.627,5.118,1.449,7.741,0.86c-2.239,3.455-3.838,7.427-4.169,11.545
			c-0.339,4.221,0.776,8.51,3.738,11.63c2.737,2.883,6.686,4.564,10.638,4.758c8.672,0.427,16.713-6.024,19.607-13.958
			C101.605,183.93,101.44,179.177,99.57,174.864z"/>
		<path style="fill:#EBEBEC;" d="M45.007,191.379c-0.435-4.193-2.728-8.941-7.16-10.002c-2.246-0.538-4.739,0.101-6.18,1.97
			c-0.772,1.001-1.235,2.333-1.129,3.591c-0.275,1.212-0.322,2.482-0.144,3.663c0.352,2.333,1.569,4.385,3.009,6.211
			c1.374,1.742,3.004,3.607,5.284,4.062C43.814,201.899,45.4,195.169,45.007,191.379z"/>
		<path style="fill:#EBEBEC;" d="M130.724,184.069c-0.367-2.691-1.721-5.16-3.969-6.72c-2.106-1.462-4.778-2.036-7.26-1.299
			c-3.103,0.921-5.715,3.762-7.623,6.256c-1.782,2.328-3.189,5.101-3.389,8.056c-0.343,1.639-0.247,3.313,0.614,4.988
			c1.246,2.422,3.029,5.182,5.898,5.721c2.844,0.535,5.758-0.898,8.039-2.457C127.774,195.372,131.54,190.064,130.724,184.069z"/>
		<path style="fill:#EBEBEC;" d="M170.449,178.276c-0.143-1.803-1.051-3.609-2.541-4.663c-1.074-0.76-2.305-0.98-3.523-0.82
			c1.62-4.316,1.794-9.123-0.343-13.349c-1.558-3.081-4.391-5.121-7.854-5.408c-3.369-0.28-6.717,0.932-9.287,3.085
			c-3.072,2.575-4.987,6.312-6.096,10.106c-0.24,0.823-0.454,1.684-0.641,2.558c-0.306,0.745-0.543,1.504-0.709,2.228
			c-0.811,3.535-0.203,7.467,1.842,10.485c2.067,3.051,5.379,4.438,8.993,3.556c1.757-0.429,3.448-1.222,5.017-2.225
			c0.043,0.134,0.082,0.269,0.142,0.398c-0.135,0.916-0.145,1.841,0.038,2.703c0.872,4.089,5.731,4.605,8.812,2.698
			c1.804-1.116,3.167-2.861,4.233-4.666C169.718,182.955,170.638,180.652,170.449,178.276z M159.923,178.378
			c-0.805,0.959-1.7,1.833-2.658,2.64C157.771,179.775,158.597,178.633,159.923,178.378z"/>
		<path style="fill:#EBEBEC;" d="M198.286,168.811c-0.51-1.851-1.94-3.462-3.859-3.872c-0.083-0.018-0.17-0.018-0.254-0.031
			c-2.568-1.328-6.152,0.28-8.273,1.851c-2.887,2.139-4.68,5.786-2.516,9.106c2.146,3.292,6.35,3.883,9.739,2.237
			C196.437,176.492,199.345,172.654,198.286,168.811z"/>
		<path style="fill:#EBEBEC;" d="M233.407,133.628c-1.784-2.111-4.401-3.54-7.039-4.261c-2.495-0.682-5.218-0.659-7.78-0.005
			c-0.007-0.514-0.052-1.032-0.188-1.554c-0.791-3.04-3.708-4.176-6.599-4.17c-4.922,0.012-9.847,2.264-13.305,5.824
			c-2.872,2.102-5.377,4.68-7.362,7.723c-0.792,1.214-1.711,2.565-1.757,4.062c-0.041,1.356,0.663,2.603,1.636,3.508
			c2.39,2.224,6.025,2.429,9.073,1.812c3.417-0.692,6.659-2.26,9.529-4.343c-0.042,0.112-0.091,0.219-0.131,0.333
			c-0.832,2.393-0.955,4.991-0.027,7.376c0.822,2.115,2.468,4.022,4.656,4.766c2.809,0.955,5.79-0.037,8.317-1.325
			c2.556-1.304,4.914-2.99,6.971-4.991c2.061-2.004,4.027-4.37,5.053-7.086C235.461,138.636,235.286,135.852,233.407,133.628z"/>
		<path style="fill:#EBEBEC;" d="M265.28,101.58c-1.006-1.681-2.707-2.854-4.576-3.382c-3.702-1.046-7.579,0.817-10.092,3.662
			c-2.992,0.86-5.635,3.102-6.498,6.139c-0.624,2.198,0.319,4.278,2.213,5.489c2.125,1.359,4.973,1.374,7.395,1.091
			c4.535-0.531,9.728-2.78,11.747-7.161C266.324,105.562,266.342,103.356,265.28,101.58z"/>
	</g>
	<g>
		<g>
			<linearGradient id="SVGID_1_" gradientUnits="userSpaceOnUse" x1="139.2177" y1="-8.6032" x2="154.354" y2="197.9622">
				<stop  offset="0" style="stop-color:#E96F1F"/>
				<stop  offset="0.4659" style="stop-color:#F5851F"/>
				<stop  offset="0.9765" style="stop-color:#F0A51F"/>
				<stop  offset="1" style="stop-color:#EA7024"/>
			</linearGradient>
			<path style="fill:url(#SVGID_1_);" d="M287.205,61.892c-1.281-10.608-7.62-18.819-16.119-24.864
				c-9.681-6.886-21.416-11.478-32.209-16.313c-11.31-5.067-22.699-10.405-34.554-14.072c-28.476-8.808-55.596,6.445-81.263,17.279
				c-21.768,9.189-43.29,18.964-64.535,29.313C46.82,58.936,32.163,67.23,20.915,73.778c-8.734,5.085-13.421,7.476-15.136,17.807
				c-1.218,7.125-1.114,17.216-0.234,24.336c0.435,3.522,0.849,7.113,3.153,9.966c2.293,2.839,39.618,17.765,55.495,22.293
				c8.461,2.413,16.926,4.814,25.431,7.065c8.146,2.156,16.302,3.613,24.686,1.958c10.879-2.148,19.332-8.619,29.053-13.224
				c11.148-5.282,22.353-10.447,33.529-15.669c22.353-10.446,44.706-20.892,67.058-31.339c8.185-3.825,16.37-7.65,24.555-11.476
				c6.147-2.873,14.774-4.21,17.798-11.145C287.949,70.573,287.71,66.072,287.205,61.892z"/>
			<path style="fill:#A64F43;" d="M106.75,158.408c-6.018,0-11.792-1.249-17.251-2.694c-8.415-2.227-16.836-4.614-25.44-7.068
				c-15.138-4.317-53.247-19.369-55.739-22.455c-2.356-2.918-2.805-6.545-3.237-10.052l-0.019-0.158
				C4.266,109.526,4,99.113,5.301,91.504c1.694-10.201,6.239-12.841,14.489-17.632l0.881-0.512
				c15.532-9.042,28.196-15.96,37.642-20.561c21.158-10.307,42.879-20.173,64.558-29.324c3.405-1.438,6.907-2.984,10.294-4.48
				c22.828-10.083,46.434-20.508,71.301-12.816c10.564,3.267,20.864,7.906,30.826,12.392l3.783,1.701
				c1.839,0.824,3.705,1.641,5.584,2.463c9.162,4.01,18.636,8.157,26.708,13.898c9.636,6.854,15.127,15.333,16.318,25.201
				c0.494,4.086,0.768,8.792-0.94,12.711c-2.373,5.444-7.92,7.499-13.284,9.486c-1.688,0.626-3.282,1.216-4.753,1.904
				l-91.613,42.815c-3.717,1.737-7.437,3.467-11.157,5.198c-7.34,3.415-14.931,6.946-22.37,10.47
				c-3.017,1.43-5.962,3.068-8.81,4.651c-6.291,3.499-12.796,7.117-20.357,8.611C111.814,158.19,109.26,158.408,106.75,158.408z
				 M186.632,4.491c-18.228,0-35.873,7.793-53.074,15.391c-3.391,1.498-6.897,3.046-10.309,4.486
				c-21.663,9.144-43.368,19.003-64.511,29.303c-9.424,4.59-22.067,11.497-37.579,20.527l-0.882,0.513
				c-8.256,4.795-12.401,7.202-14.02,16.955c-1.284,7.515-1.02,17.81-0.232,24.197l0.02,0.159c0.416,3.372,0.846,6.86,3.029,9.562
				c2.189,2.71,39.366,17.602,55.251,22.131c8.6,2.452,17.015,4.838,25.422,7.063c7.623,2.018,15.866,3.651,24.469,1.951
				c7.411-1.464,13.561-4.885,20.073-8.507c2.862-1.591,5.82-3.237,8.866-4.68c7.442-3.526,15.033-7.058,22.375-10.473
				c3.719-1.731,7.439-3.461,11.155-5.198l91.613-42.814c1.508-0.704,3.12-1.302,4.827-1.934c5.174-1.917,10.523-3.899,12.732-8.964
				c1.614-3.705,1.343-8.25,0.866-12.207l0,0c-1.158-9.585-6.514-17.838-15.919-24.528c-7.989-5.683-17.417-9.809-26.535-13.8
				c-1.881-0.823-3.75-1.641-5.591-2.466l-3.786-1.702c-9.934-4.473-20.207-9.099-30.713-12.349
				C198.269,5.277,192.421,4.491,186.632,4.491z"/>
		</g>
		
			<linearGradient id="SVGID_00000183242356410141287260000001428318889470998451_" gradientUnits="userSpaceOnUse" x1="177.7763" y1="58.984" x2="208.3457" y2="133.7751">
			<stop  offset="3.370900e-04" style="stop-color:#F68D3C"/>
			<stop  offset="1" style="stop-color:#B15118"/>
		</linearGradient>
		<path style="opacity:0.53;fill:url(#SVGID_00000183242356410141287260000001428318889470998451_);" d="M287.205,61.892
			c-0.727-6.02-3.086-11.267-6.541-15.785c-0.619,0.097-1.239,0.189-1.856,0.304c-7.464,1.395-14.681,3.931-21.7,6.782
			c-7.253,2.945-14.584,5.679-21.923,8.402c-7.372,2.736-14.746,5.473-22.036,8.422c-7.283,2.947-14.385,6.275-21.566,9.453
			c-14.109,6.244-28.403,12.071-42.389,18.593c-6.895,3.215-13.714,6.599-20.37,10.286c-5.633,3.12-11.038,6.802-15.142,11.838
			c-2.019,2.478-3.662,5.294-4.665,8.335c-1.141,3.463-1.418,7.165-1.425,10.791c-0.011,6.203,0.888,12.364,1.149,18.552
			c1.847-0.087,3.702-0.294,5.569-0.662c10.879-2.148,19.333-8.619,29.053-13.224c11.148-5.282,22.353-10.447,33.529-15.669
			c22.353-10.446,44.705-20.892,67.058-31.339c8.185-3.825,16.37-7.65,24.555-11.475c6.147-2.873,14.774-4.21,17.798-11.145
			C287.949,70.573,287.71,66.072,287.205,61.892z"/>
		<g style="opacity:0.68;">
			<path style="fill:#F26921;" d="M157.519,121.578c-3.952-2.25-7.733-4.78-11.686-7.026c-3.862-2.193-8.038-4.023-12.201-5.564
				c-8.516-3.151-18.585-6.325-27.358-2.31c-4.773,2.184-8.315,5.991-10.981,10.443c-2.706,4.518-4.919,9.374-6.982,14.212
				c-2.313,5.423-4.462,10.973-6.318,16.569c-0.533,1.607-1.02,3.23-1.427,4.873c1.623,0.448,3.249,0.89,4.874,1.329
				c0.514-1.576,1.118-3.13,1.736-4.654c1.873-4.618,3.892-9.195,5.907-13.753c1.98-4.478,3.982-8.968,6.344-13.261
				c1.026-1.865,2.121-3.706,3.422-5.395c0.995-1.291,2.422-2.715,3.95-3.603c3.48-2.021,7.925-2.094,11.839-2.008
				c4.319,0.095,8.491,0.733,12.624,1.986c4.111,1.246,8.018,2.932,11.972,4.592c3.94,1.654,7.893,3.234,11.723,5.134
				c4.33,2.147,8.59,4.441,12.971,6.484c0.994,0.464,2.019,0.951,3.063,1.433c1.015-0.473,2.03-0.945,3.044-1.418
				c-1.443-0.586-2.877-1.191-4.294-1.835C165.575,125.913,161.493,123.84,157.519,121.578z"/>
			<path style="fill:#F26921;" d="M153.614,80.539c-14.726-0.07-29.917,1.033-44.129,5.079
				c-13.698,3.899-25.493,12.037-34.997,22.541c-5.466,6.042-10.137,12.71-14.329,19.686c-2.19,3.644-4.157,7.473-5.951,11.325
				c-0.775,1.664-1.491,3.349-2.195,5.038c0.915,0.323,1.813,0.635,2.692,0.937c2.763-4.267,5.555-8.521,8.346-12.758
				c3.773-5.729,7.55-11.423,11.978-16.677c8.372-9.932,18.52-17.955,30.863-22.283c6.744-2.365,13.806-3.636,20.884-4.499
				c6.903-0.842,13.855-1.351,20.808-1.484c6.843-0.132,13.623,0.253,20.44,0.779c6.89,0.531,13.725,1.484,20.424,3.21
				c7.555,1.946,14.856,4.82,21.716,8.534c4.033,2.184,7.828,4.748,11.575,7.384c1.112-0.52,2.225-1.04,3.337-1.56
				c-9.169-7.059-19.109-13.329-29.841-17.488C181.952,83.154,167.844,80.607,153.614,80.539z"/>
			<path style="fill:#F26921;" d="M269.247,49.935c-10.377,0.094-20.673,1.119-30.967,2.358c-10.363,1.247-20.73,2.487-31.054,4.028
				c-10.305,1.539-20.583,3.35-30.864,5.042c-20.64,3.397-41.056,7.926-61.487,12.381c-4.915,1.072-9.896,1.779-14.804,2.906
				c-4.641,1.066-9.251,2.262-13.811,3.633c-9.106,2.738-17.926,6.412-25.904,11.636c-7.882,5.161-15.388,11.795-19.212,20.596
				c-1.922,4.424-2.992,9.178-4.08,13.859c-0.873,3.756-1.741,7.511-2.567,11.275c1.439,0.567,2.892,1.132,4.35,1.693
				c0.495-1.585,0.975-3.176,1.417-4.788c1.323-4.831,2.542-9.707,4.05-14.485c1.348-4.272,3.081-8.374,5.758-11.992
				c2.469-3.336,5.647-6.17,8.969-8.635c15.056-11.172,33.591-16.51,51.125-22.402c9.71-3.263,19.808-5.317,29.896-7.005
				c9.995-1.673,20.034-3.106,30.084-4.409c19.958-2.589,40.024-4.076,60.03-6.24c18.671-2.019,37.468-4.165,56.183-1.837
				c-0.665-2.494-1.622-4.84-2.828-7.04C278.798,49.995,273.999,49.892,269.247,49.935z"/>
			<path style="fill:#F26921;" d="M260.208,64.533c-10.893,1.761-21.878,3.556-32.566,6.338c-4.919,1.28-9.693,2.905-14.309,5.035
				c-1.712,0.79-4.277,1.589-5.223,3.382c-0.911,1.728,0.291,2.917,1.754,3.705c4.726,2.547,9.874,4.556,14.854,6.551
				c5.021,2.011,10.087,3.907,15.203,5.664c1.522,0.523,3.055,1.02,4.593,1.5c2.69-1.257,5.379-2.514,8.069-3.771
				c-1.247-0.308-2.497-0.6-3.74-0.923c-9.803-2.541-19.533-5.309-29.127-8.56c-2.374-0.804-4.724-1.676-7.092-2.497
				c-0.769-0.266-2.968-0.542-1.99-1.686c0.685-0.801,2.475-1.418,3.413-1.864c4.373-2.083,9.033-3.577,13.714-4.792
				c9.71-2.521,19.724-4.284,29.671-5.545c5.67-0.719,11.371-0.856,17.074-1.038c4.35-0.139,8.704-0.133,13.047,0.112
				c-0.033-0.966-0.102-1.932-0.198-2.889c-3.394-0.35-6.803-0.53-10.224-0.483C271.461,62.851,265.798,63.629,260.208,64.533z"/>
			<path style="fill:#F26921;" d="M23.993,113.974c2.768-8.173,5.385-16.954,11.808-23.076c5.973-5.694,13.945-8.983,21.42-12.185
				c8.828-3.782,17.743-7.182,26.875-10.16c18.344-5.982,36.957-11.376,55.648-16.167c9.16-2.348,18.401-4.165,27.695-5.883
				c9.27-1.714,18.302-3.886,26.918-7.786c9.211-4.168,18.067-9.227,28.024-11.439c5.137-1.141,10.334-1.642,15.56-2.154
				c3.125-0.306,6.296-0.391,9.433-0.667c-2.861-1.26-5.711-2.494-8.498-3.742c-0.988-0.443-1.978-0.889-2.967-1.334
				c-3.086,0.24-6.161,0.621-9.21,1.16c-9.544,1.688-18.142,5.345-26.751,9.664c-8.596,4.313-17.279,7.884-26.6,10.321
				c-9.568,2.502-19.254,4.579-28.86,6.932c-19.115,4.684-37.958,10.4-56.88,15.788c-9.313,2.652-18.611,5.442-27.709,8.765
				c-8.372,3.058-17.173,6.782-24.269,12.274c-4.021,3.112-7.447,6.772-9.917,11.241c-2.599,4.702-4.387,9.793-5.978,14.911
				c-1.595,5.13-3.135,10.428-4.077,15.721c-0.198,1.112-0.361,2.219-0.513,3.327c1.074,0.503,2.253,1.038,3.523,1.6
				c0.343-1.076,0.698-2.148,1.03-3.228C21.124,123.226,22.438,118.564,23.993,113.974z"/>
			<path style="fill:#F26921;" d="M64.039,60.284c16.723-5.059,33.403-10.358,49.983-15.867
				c16.78-5.575,33.399-11.573,50.248-16.944c17.207-5.486,34.36-11.117,51.512-16.766c-0.535-0.21-1.071-0.421-1.608-0.626
				c-14.921,4.594-29.837,9.19-44.714,13.933c-8.584,2.736-17.147,5.54-25.792,8.077c-8.514,2.499-17.071,4.836-25.558,7.428
				c-17.092,5.22-34.201,10.528-51.132,16.25c-15.712,5.31-31.644,10.646-46.152,18.808c-3.702,2.083-7.325,4.38-10.796,6.893
				c-1.287,1.483-2.306,3.216-3.08,5.416c3.815-3.069,7.855-5.856,12.064-8.36C33.021,70.196,48.517,64.979,64.039,60.284z"/>
			<path style="fill:#F26921;" d="M170.869,11.966c5.424-1.554,10.893-2.974,16.302-4.58c2.734-0.811,5.391-1.835,8.074-2.763
				c-5.469-0.775-10.886-0.762-16.251-0.163c-1.259,0.361-2.516,0.725-3.772,1.086c-9.692,2.785-19.344,5.711-28.952,8.775
				c-1.527,0.487-3.053,0.981-4.579,1.474c-6.292,2.703-12.503,5.539-18.631,8.126c-11.081,4.678-22.098,9.511-33.047,14.491
				c7.935-2.814,15.866-5.638,23.831-8.365C132.716,23.587,151.691,17.461,170.869,11.966z"/>
		</g>
		<path style="opacity:0.68;fill:#F79020;" d="M7.719,108.895c1.734-3.931,3.874-8.062,7.654-10.375
			c3.857-2.361,8.588-2.539,12.967-2.102c5.475,0.546,10.932,1.707,16.311,2.838c11.807,2.483,23.481,5.679,34.865,9.679
			c4.799,1.686,9.621,3.451,14.273,5.516c3.899,1.73,7.927,4.125,9.647,8.237c2.105,5.032,2.214,10.819,2.558,16.18
			c0.329,5.141,0.846,10.317,2.833,15.085c0.262-1.51,0.429-3.034,0.52-4.568c0.501-8.457-0.973-17.324,2.645-25.296
			c1.118-2.465,2.615-4.754,4.693-6.497c1.684-1.413,3.458-2.721,5.223-4.03c4.57-3.392,9.215-6.688,13.67-10.233
			c1.748-1.391,3.507-2.808,5.063-4.415c0.472-0.487,0.901-0.958,1.242-1.529c0.033-0.056,0.065-0.115,0.093-0.174
			c0.01-0.021,0.011-0.024,0.015-0.032c0-0.002,0.002-0.006,0.011-0.028c0.016-0.037,0.055-0.148,0.065-0.175
			c0.001-0.003,0.002-0.007,0.003-0.009c-0.033-0.032-0.088-0.091-0.138-0.134c-0.637-0.553-1.608-0.616-2.412-0.627
			c-1.278-0.018-2.554,0.175-3.806,0.419c-2.964,0.579-5.861,1.482-8.729,2.417c-2.055,0.67-4.09,1.429-6.202,1.899
			c-5.237,1.166-10.618,1.649-15.979,1.496c-5.287-0.15-10.509-0.977-15.698-1.955c-5.119-0.965-10.2-2.127-15.248-3.407
			c-10.204-2.587-20.278-5.652-30.362-8.666c-2.257-0.674-4.505-1.386-6.791-1.952c-1.787-0.443-3.584-0.876-5.308-1.53
			c-2.798-1.061-6.156-3.042-6.707-6.268c-0.398-2.334-0.078-4.761,0.103-7.127c-1.327,0.766-2.626,1.518-3.877,2.247
			c-8.734,5.084-13.421,7.476-15.136,17.808c-1.161,6.791-1.112,16.249-0.344,23.288C6.086,112.833,6.864,110.833,7.719,108.895z"/>
		<path style="fill:#F2C48F;" d="M34.518,91.81c-0.488-1.118-1.996-1.686-3.054-2.071c-1.256-0.457-2.569-0.734-3.878-0.99
			c-1.375-0.27-2.852-0.449-4.139-1.028c-0.687-0.309-1.306-0.765-1.666-1.441c-0.4-0.751-0.155-1.33-0.039-2.105
			c0.408-2.725-2.921-3.687-5.032-3.324c-2.511,0.432-4.926,2.269-5.646,4.766c-0.053,0.182-0.028,0.307,0.035,0.389
			c-1.159,1.955-1.798,4.28-1.696,6.552c0.057,1.279,0.443,2.617,1.481,3.446c0.9,0.719,2.019,0.84,3.07,0.385
			c2.597-1.126,4.437-3.482,7.366-3.913c2.867-0.422,5.725,0.636,8.489,1.24c0.667,0.146,1.337,0.281,2.015,0.371
			c0.59,0.078,1.275,0.211,1.845-0.028C34.512,93.705,34.876,92.629,34.518,91.81z"/>
	</g>
	<g>
		
			<linearGradient id="SVGID_00000032646868776034839580000000816276891597619097_" gradientUnits="userSpaceOnUse" x1="143.2905" y1="62.4774" x2="184.6927" y2="137.2683">
			<stop  offset="0" style="stop-color:#302C30"/>
			<stop  offset="0.0869" style="stop-color:#3B363A"/>
			<stop  offset="0.3667" style="stop-color:#595356"/>
			<stop  offset="0.524" style="stop-color:#655E60"/>
			<stop  offset="0.7596" style="stop-color:#423D3E"/>
			<stop  offset="1" style="stop-color:#231F20"/>
		</linearGradient>
		<path style="fill:url(#SVGID_00000032646868776034839580000000816276891597619097_);" d="M63.085,50.195
			c0,0,98.831,31.608,104.618,39.621s10.186,111.35,7.541,115.775c0,0-1.309,2.199,5.814-0.027
			c7.123-2.226,44.073-17.807,46.299-22.704c2.226-4.897-3.561-105.509-7.123-113.967c-3.561-8.459-92.598-44.964-106.844-42.293
			L63.085,50.195z"/>
		<path style="fill:#484243;" d="M176.354,207.05c-0.895,0-1.271-0.243-1.484-0.512c-0.338-0.43-0.186-0.953-0.042-1.194
			c1.187-1.987,0.877-27.754-0.676-56.268c-1.8-33.026-4.421-55.624-6.841-58.975c-5.63-7.794-103.386-39.128-104.373-39.444
			l-1.177-0.376l51.542-24.157c7.773-1.456,35.939,8.247,57.699,16.999c23.317,9.38,47.721,20.927,49.681,25.582
			c1.938,4.602,4.319,34.378,5.769,58.478c1.505,25.028,2.57,53.19,1.348,55.878c-2.38,5.236-40.456,21.048-46.595,22.967
			C178.767,206.789,177.281,207.05,176.354,207.05z M175.636,205.947c0.002,0,0.567,0.626,5.278-0.844
			c7.249-2.266,43.863-17.736,46.002-22.443c2.369-5.212-3.96-106.053-7.128-113.578c-1.553-3.688-22.223-14.227-49.149-25.058
			c-28.406-11.427-50.788-18.076-57.099-16.956L64.409,50.111c11.709,3.764,98.15,31.756,103.688,39.422
			c6.162,8.532,10.065,112.123,7.565,116.308C175.647,205.867,175.631,205.926,175.636,205.947L175.636,205.947z"/>
	</g>
</g>
</svg>
